PathFileType	4	(X/Y/Z)	70_2_80_p0_0-605.trc
DataRate	CameraRate	NumFrames	NumMarkers	Units	OrigDataRate	OrigDataStartFrame	OrigNumFrames
50.0	50.0	7	27	m	50.0	75	606
Frame#	Time	RHip			RKnee			RAnkle			RBigToe			RSmallToe			RHeel			LHip			LKnee			LAnkle			LBigToe			LSmallToe			LHeel			Neck			Head			Nose			RShoulder			RElbow			RWrist			RThumb			RIndex			RPinky			LShoulder			LElbow			LWrist			LThumb			LIndex			LPinky			
		X1	Y1	Z1	X2	Y2	Z2	X3	Y3	Z3	X4	Y4	Z4	X5	Y5	Z5	X6	Y6	Z6	X7	Y7	Z7	X8	Y8	Z8	X9	Y9	Z9	X10	Y10	Z10	X11	Y11	Z11	X12	Y12	Z12	X13	Y13	Z13	X14	Y14	Z14	X15	Y15	Z15	X16	Y16	Z16	X17	Y17	Z17	X18	Y18	Z18	X19	Y19	Z19	X20	Y20	Z20	X21	Y21	Z21	X22	Y22	Z22	X23	Y23	Z23	X24	Y24	Z24	X25	Y25	Z25	X26	Y26	Z26	X27	Y27	Z27	
75	1.5	0.37425538832949806	0.5357559758005946	0.09795210657577492	0.38236273060253123	0.7018702761848113	0.4846335022638774	0.38342283273280303	0.8158418658935619	0.9189430832706507	0.32302528245993833	0.6434363358122782	1.0025111714925494	0.38881691353269565	0.6134147273472694	0.9717112171594078	0.36351726779363036	0.9209526508673559	0.998235778837346	0.13514783426621724	0.6078815985809435	0.08562664182927858	0.16629454068784427	0.7368849684629897	0.5003883656173731	0.17475357557268775	0.8298717674164517	0.9049975126750962	0.166418825635993	0.644981510238696	0.9808781483134545	0.11539573660000282	0.71983310805003	0.9801556616000483	0.2007683618277278	0.8686626427827819	0.9483399767126295	0.23922827407383998	0.4192274074570826	-0.5603491690190854	0.2232743134138266	0.32254558106276454	-0.8139179353954157	0.20841629035620812	0.2693994657440991	-0.66366928750835	0.4274637739667154	0.45737165307744077	-0.4608670213668949	0.47344478598706646	0.47569841996810486	-0.15071350353603716	0.4808846779043057	0.4611943524165014	0.12440521568888933	0.4339018216122041	0.4212877853519722	0.26359880947527564	0.4491409795527169	0.42452544986019436	0.2866130031034326	0.473416186455851	0.47231411785232397	0.2778560155618142	0.08177847494517712	0.5136677584954492	-0.46619002000245063	0.01925439600104938	0.5807667698630704	-0.1593175967947871	0.013728975461210293	0.5965817035868889	0.12272925782221993	0.05886652178514201	0.5502955389051858	0.22763971249531956	0.04687769613378546	0.5430878577919368	0.2538589220418223	0.010071982338762836	0.621032768017424	0.2549079071739313
76	1.52	0.3753508075868457	0.5374468999041324	0.10615191838851179	0.382341683812557	0.7023760269497348	0.4850252715381074	0.3831965184738366	0.8168457806503908	0.9147678059286647	0.31741719162127313	0.6293961405146233	0.9977843391977054	0.3885276218870492	0.6126998683978331	0.9718398924728541	0.36179212362407986	0.9191849957403111	0.9891209215942814	0.1351738877493805	0.6078725340619062	0.08567203121725339	0.16623792370721957	0.7366505106117968	0.5004824690437502	0.17473512095451718	0.8297892514261297	0.9049468232795869	0.16188296651253828	0.6422765125081447	0.9842975744048175	0.11533025823001969	0.7194591632503712	0.9799931347597941	0.20099206312208845	0.8691411195075694	0.9480663504275788	0.2392742370980424	0.41916963810403857	-0.5604775454418267	0.22335603622108327	0.3226093918541235	-0.8136546136981042	0.20841204438919758	0.2693875792470273	-0.6637145296833623	0.4274843186413479	0.45730066221744886	-0.46085626060819584	0.4734762347860571	0.47553416558775147	-0.15074654234230017	0.4809601710605562	0.4613617283440572	0.12430731658516225	0.429898104346333	0.4206285913128073	0.263505646247249	0.4489685411008532	0.4242430038731046	0.2866081186280311	0.47335516135786115	0.47224567706840825	0.27803103898337683	0.08178310174490423	0.5143361115133632	-0.4629479265480363	0.018525937831922808	0.5787049231025562	-0.16723533827705658	0.018491966324072837	0.5969835535787226	0.1191683547111237	0.060503674156529685	0.5544265175265601	0.23596795265338633	0.04687592545929301	0.5435321525363256	0.25440485937896645	0.010186925568550206	0.6211084051454482	0.2548920469311191
77	1.54	0.37005325639401987	0.5350847728534057	0.10206794598016472	0.3822051674923358	0.7018816023061752	0.4847886541645725	0.3833396525337491	0.8157597283256524	0.918890083343885	0.317729601190394	0.6305587395146963	0.9977545601448563	0.3885067522708637	0.6130711008365749	0.971618227566894	0.3632755797364611	0.9220687250619253	0.9943724077083397	0.13513826584343408	0.608106119351134	0.08573411695036158	0.1649322232222388	0.7345118787251819	0.4955269006803335	0.1746661443177139	0.8298290505569449	0.9050443967283024	0.1618269213078229	0.6419614948013047	0.9842043728016912	0.11519967444194933	0.7193501330384817	0.9800656126445066	0.20055916683482206	0.868435826764481	0.9484914471666792	0.23928828307493605	0.4192601737759848	-0.5605442651338315	0.2233256327125905	0.3225001046597232	-0.8138005871599031	0.20843595821415387	0.26932548994076344	-0.6636996211092691	0.42748284195633207	0.45721711728492676	-0.4608986313724843	0.4734864364985393	0.47536408702348576	-0.15067530275431282	0.4751693085347114	0.45011081424011345	0.12368955915134684	0.4285814807025374	0.41946327824211543	0.2594049011459463	0.4419584700456535	0.4275550549731982	0.28721932171129	0.4691562498746421	0.4626276627449748	0.27967613490306287	0.08186287795632963	0.5139741805970351	-0.4660522964817209	0.01861439306253181	0.5788249832532082	-0.1673827415504033	0.01806680614635212	0.5979325663209132	0.12243136757350723	0.05884170484679431	0.5503702594628501	0.22768731458488323	0.046939790342195274	0.5433464908162894	0.2541417329345595	0.017544157740797567	0.6460310704768548	0.25807909609835455
78	1.56	0.37441947152369187	0.5351762616753808	0.10198131812762591	0.3827793848274026	0.7002054698506617	0.4800819566893926	0.38335263185608454	0.8157910578051458	0.9187700240157902	0.3179410534202757	0.6310464590531932	0.9977730081813552	0.38877324201953617	0.6135960398933509	0.9715624230457277	0.3632931938180216	0.9220109900088787	0.9943043000873254	0.13517383715940276	0.607858922474992	0.08582577499459883	0.16607117223873966	0.7364594862384435	0.5005765470747346	0.17470911723203553	0.8298679123242036	0.9050969435961921	0.16187583703527572	0.642285402455856	0.9842808260884766	0.11533247875567477	0.7197723908013279	0.980106845912795	0.20075244624805008	0.8686957062338874	0.9484132823773076	0.23927360456288424	0.4192411502850342	-0.560510165881718	0.22333591416326506	0.3225878095899357	-0.813803134453866	0.2084193443239896	0.26941961070537274	-0.6637131220770972	0.42751558937456785	0.4572577758030328	-0.46088071582130685	0.47346578400380795	0.4746203816791846	-0.15786102078573236	0.47473014126314655	0.4510698293544153	0.12773744328090125	0.4276711234210983	0.43627370294305173	0.27303225504676676	0.44716537103551585	0.43855611446368997	0.28901620442856063	0.4695931990665324	0.44875859545395447	0.281350778915221	0.08184404207652876	0.513883031567985	-0.4660872944278494	0.018626175282991132	0.5787975585531449	-0.16735231524985839	0.022075267153713645	0.6112733781959522	0.12324475096892844	0.057970403420069365	0.5487293690371898	0.22346070265641702	0.04685078200796702	0.5433111921337448	0.2535272629859554	0.016881339367006684	0.6442787612846402	0.2543192879822169
79	1.58	0.3771566799097454	0.5219725223892911	0.10468819112171382	0.38228160737049777	0.7016590672038927	0.48461191302226264	0.3833366867730075	0.8158039385250093	0.9190072735190966	0.3118634940909814	0.6165626297703131	0.9930449732107428	0.3881528864937003	0.6123247734793771	0.9716292187728878	0.3632551813235418	0.9219354699873515	0.9945787531543616	0.13518159672850105	0.6080237067444076	0.08582714671061577	0.1660720660298439	0.7363947042717547	0.5005738029639296	0.176042673047661	0.8327999537256848	0.9106294121156164	0.161533806768832	0.6428037819419402	0.9800238816627121	0.11537669909333938	0.7195877281448367	0.9799697631469966	0.2020053853679039	0.8715089975312362	0.9538695067663282	0.2392920945382369	0.41920916188053514	-0.5604693804639105	0.22337203648481097	0.322691482285253	-0.813914080790572	0.21003375325193077	0.28256608226976243	-0.6664130144076776	0.42757389211154845	0.45728426195601113	-0.4609158309000124	0.47346157733976796	0.47448243237321774	-0.15783026215441048	0.47339650581663556	0.46538473496125776	0.12906271476083775	0.4274038701049144	0.4367823464089642	0.2698040238561624	0.44171064662935844	0.42830822802986007	0.28768812852082276	0.46980389613535395	0.44763509579013533	0.2774170717804873	0.0818194070364936	0.5138452071801201	-0.466078306326338	0.018644518645416976	0.5789828397869163	-0.1673699380351843	0.02207217992317751	0.6113229317895116	0.1232675535721719	0.05810260487680101	0.5486626046943103	0.22341702665349708	0.0470280258408368	0.5431866924480108	0.2534056494892932	0.01685287758304924	0.6442134800395342	0.2542428510370216
80	1.6	0.3752795489857448	0.5365761446462031	0.10587328954148859	0.3828630441857264	0.7000392374926028	0.47995813577359314	0.38334138051176847	0.8158793342150019	0.9190486691177284	0.3118845839671052	0.6161705293005306	0.9929009357501118	0.38644220741310475	0.6282756742481372	0.9773220060029186	0.3635174133953435	0.9212467698661331	0.9984430680594771	0.1351108809418942	0.6080819436253438	0.08576083247542078	0.16483544175288536	0.7339899881822309	0.4952760483647311	0.17467702717919678	0.8297246516564661	0.9050849517847547	0.16154914171666168	0.6429947280475624	0.9799506832692447	0.11538795888549683	0.7195074337503198	0.979927778121246	0.20082650878693908	0.8688735156282927	0.9483756570482786	0.23929883404390567	0.4192176793447431	-0.5605701619227837	0.223155948828164	0.3221285011331074	-0.8170941342452085	0.20613507481072638	0.28148104732089946	-0.6659754837001587	0.4275584520187623	0.45705921739708094	-0.46097205222238075	0.47344398535693355	0.4744018146879979	-0.15788880737743377	0.4733813197679098	0.4654053750816609	0.1291163642451562	0.427352016656515	0.436758856213186	0.26972098266419675	0.44163476619749603	0.42838765627352915	0.2875573007144453	0.4697096728900289	0.4475626000300779	0.2774791220546894	0.08183979550836325	0.5138065999659169	-0.46614827724779406	0.018650678199646345	0.5789586452083368	-0.1675528626949893	0.02182758046845728	0.6084323248041787	0.11522214483070052	0.061710539944424825	0.5500039328517238	0.22338740177569288	0.046221822502247635	0.5405882883143981	0.24923247407788862	0.01633751973663429	0.642433055589033	0.2507831729015045
81	1.62	0.375303362046594	0.5366911546946296	0.10596827822297614	0.38278459856298946	0.7000738412563979	0.48003056380867914	0.3831910351302107	0.8168810916965542	0.9150803250697583	0.3118653969115921	0.6159033739965188	0.9928787728474402	0.38563688259197326	0.6291497969281288	0.9818079962048397	0.3679398462252314	0.9239721085994705	0.9952880376327693	0.13507950058285834	0.6080902857665021	0.08579661310712829	0.1648398571094666	0.7338277668755855	0.4954035568697725	0.17600924131758447	0.8327666585464631	0.910690044089765	0.16154829291563053	0.6429035917989016	0.9800039817197208	0.11546447204167974	0.7194309897277741	0.9798380579881442	0.20219254127553493	0.8716873936310939	0.9535687002359878	0.23933644793399958	0.4192818053658621	-0.5605465578236838	0.2231657920981246	0.3220591521003815	-0.8171309303534919	0.20618248651497093	0.2816011255611799	-0.6659910562321867	0.4275918257761443	0.45687922925480356	-0.4610329333150294	0.4775632926774809	0.4740147118524236	-0.15810551961676322	0.4733907734535553	0.46543479832146656	0.12903398268823071	0.4273733956620109	0.4368118486708621	0.2698064222406423	0.4416420145750465	0.4283256706549879	0.2877590449140983	0.46878633552781246	0.46179455833854993	0.2795428412696368	0.07902838291067216	0.5276974812198557	-0.46743398499504135	0.018683408374813477	0.5791585603146784	-0.16760906098011683	0.01778555612807739	0.5950588233502765	0.1144638768134491	0.06461430702785168	0.5499422461270037	0.2193461154752786	0.046547930436086876	0.5408644621546542	0.24928947733013546	0.016326688966137114	0.6424429186042994	0.25060014676833137
